# xmcd CD database file
#
# Track frame offsets:
#	150
#	12718
#	33468
#	44327
#	59018
#	76532
#	100604
#	116454
#	133735
#	159797
#	171319
#
# Disc length: 2783 seconds
#
# Revision: 0
# Processed by: cddbd v1.5.2PL0 Copyright (c) Steve Scherf et al.
# Submitted via: CDex 1.51
#
DISCID=860add0b
DTITLE=Good Men Gone Bad - Blues
DYEAR=1998
DGENRE=Blues
TTITLE0=Dr.'s Theme
TTITLE1=Going Down Slow
TTITLE2=Snatch It Back And Hold It
TTITLE3=Help Me
TTITLE4=Mariah
TTITLE5=Stay Close
TTITLE6=Verena
TTITLE7=Can't Be Satisfied
TTITLE8=Big Leg Women
TTITLE9=Be My Chauffeur
TTITLE10=Down In Mississippi
EXTD=YEAR: 1998
EXTT0=
EXTT1=
EXTT2=
EXTT3=
EXTT4=
EXTT5=
EXTT6=
EXTT7=
EXTT8=
EXTT9=
EXTT10=
PLAYORDER=
